<svg width="28" height="28" viewBox="0 0 28 28" fill="none" xmlns="http://www.w3.org/2000/svg">
<path fill-rule="evenodd" clip-rule="evenodd" d="M4.08301 12.0373C4.08301 6.67079 8.56754 2.33325 13.992 2.33325C19.4318 2.33325 23.9163 6.67079 23.9163 12.0373C23.9163 14.7416 22.9328 17.2522 21.3141 19.3801C19.5283 21.7274 17.3272 23.7725 14.8496 25.3777C14.2826 25.7487 13.7709 25.7767 13.1485 25.3777C10.6569 23.7725 8.45578 21.7274 6.68526 19.3801C5.06532 17.2522 4.08301 14.7416 4.08301 12.0373ZM10.7263 12.3395C10.7263 14.1372 12.1933 15.5512 13.992 15.5512C15.792 15.5512 17.2731 14.1372 17.2731 12.3395C17.2731 10.5557 15.792 9.07289 13.992 9.07289C12.1933 9.07289 10.7263 10.5557 10.7263 12.3395Z" fill="white"/>
</svg>
